<svg  width="230" height="200" xmlns="http://www.w3.org/2000/svg" viewBox="0 0 1000 600">
<path fill="none" d="M0 0H1000V600H0z"></path>
      <circle
        cx="355.738"
        cy="377.96"
        r="166.667"
        fill="#2CB1BC"
        transform="matrix(.66113 0 0 .66113 0 50.12)"
      ></circle>
      <path
        fill="#fff"
        d="M253.722 250.415v73.708q0 25.462-23.091 25.462-8.235 0-13.977-3.23v-11.483q5.885 3.82 12.363 3.82 12.792 0 12.792-13.527v-74.75h11.913z"
      ></path>
      <path
        fill="#2CB1BC"
        d="M435.366 254.975v69.39q0 23.97-21.738 23.97-7.753 0-13.158-3.04v-10.812q5.54 3.598 11.638 3.598 12.043 0 12.043-12.736v-70.37h11.215zm82.414 58.462q0 15.64-8.85 25.894-8.868 10.254-24.393 10.254-15.082 0-23.893-10.177-8.791-10.196-8.791-25.701 0-15.66 9.08-26.106 9.06-10.465 23.604-10.465 15.929 0 24.586 10.254 8.657 10.253 8.657 26.047zm-54.558.135q0 10.946 5.81 18.622 5.81 7.695 15.505 7.695 10.543 0 16.218-7.56 5.675-7.542 5.675-18.757 0-11.639-5.406-19.18-5.406-7.56-16.487-7.56-9.965 0-15.64 7.753-5.675 7.772-5.675 18.987zm81.99 24.374v10.388h-10.946v-97.919h10.946v38.225q7.618-11.638 21.335-11.638 13.293 0 21.738 10.176 8.445 10.177 8.445 26.663 0 14.832-7.964 25.22-7.964 10.389-21.95 10.389-14.12 0-21.604-11.504zm0-25.201q0 13.985 6.022 20.353 6.021 6.368 14.62 6.368 8.445 0 13.986-7.06 5.54-7.06 5.54-18.43 0-13.004-5.752-20.007-5.752-7.002-14.466-7.002-7.484 0-13.717 6.233-6.233 6.233-6.233 19.545zm135.874-57.77v93.36h-11.215v-42.246h-45.285v42.245h-11.235v-93.36h11.235v40.996h45.285v-40.995h11.215zm72.026 79.508v10.254q-8.176 4.29-19.95 4.29-15.928 0-25.682-9.773-9.772-9.753-9.772-25.817 0-16.775 8.733-26.47 8.715-9.696 22.431-9.696 13.159 0 20.911 8.464 7.772 8.446 7.772 23.951 0 4.444-.692 8.176h-47.94q1.25 10.388 7.907 15.929 6.637 5.54 17.448 5.54 11.773 0 18.834-4.848zm-24.24-47.651q-7.887 0-13.427 5.675-5.54 5.694-6.522 16.217h37.686v-2.77q0-8.734-4.713-13.928-4.713-5.194-13.024-5.194zm56.097 23.143v38.36h-10.946l.154-70.218h10.792v12.312q5.54-13.004 19.122-13.004 2.481 0 3.867.27v10.81q-2.905-.98-5.945-.98-7.349 0-12.196 6.79-4.848 6.791-4.848 15.66zm85.606 24.508v10.254q-8.175 4.29-19.949 4.29-15.928 0-25.701-9.773-9.753-9.753-9.753-25.817 0-16.775 8.714-26.47 8.734-9.696 22.45-9.696 13.159 0 20.911 8.464Q875 294.181 875 309.686q0 4.444-.693 8.176h-47.92q1.25 10.388 7.887 15.929 6.657 5.54 17.468 5.54 11.773 0 18.833-4.848zm-24.239-47.651q-7.906 0-13.447 5.675-5.54 5.694-6.502 16.217h37.667v-2.77q0-8.734-4.694-13.928-4.713-5.194-13.024-5.194z"
      ></path>
</svg>
